<?xml version="1.0" standalone="no"?><!DOCTYPE svg PUBLIC "-//W3C//DTD SVG 1.1//EN" "http://www.w3.org/Graphics/SVG/1.1/DTD/svg11.dtd"><svg t="1725874784699" class="icon" viewBox="0 0 1024 1024" version="1.1" xmlns="http://www.w3.org/2000/svg" p-id="8520" xmlns:xlink="http://www.w3.org/1999/xlink" width="128" height="128"><path d="M512 512m-512 0a512 512 0 1 0 1024 0 512 512 0 1 0-1024 0Z" fill="#FF4C4C" p-id="8521"></path><path d="M493.945263 634.529684a131.098947 131.098947 0 0 1-111.723789-62.517895 117.975579 117.975579 0 0 0 78.928842 30.234948h3.772631a125.547789 125.547789 0 0 1-26.947368-18.53979 97.010526 97.010526 0 0 1-34.789053-52.304842 103.316211 103.316211 0 0 1-3.907368-28.186947 106.846316 106.846316 0 0 1 37.456842-80.410947 136.299789 136.299789 0 0 1 90.839579-33.28h2.856421a130.910316 130.910316 0 0 1 111.373474 61.978947 118.110316 118.110316 0 0 0-79.198316-30.423579h-3.503158a132.715789 132.715789 0 0 1 26.947368 18.539789 97.603368 97.603368 0 0 1 34.816 53.032421 104.609684 104.609684 0 0 1 3.880421 28.375579 106.576842 106.576842 0 0 1-37.726315 80.222316 136.380632 136.380632 0 0 1-90.597053 33.253053z m20.102737-197.928421a75.317895 75.317895 0 1 0 75.290947 75.317895 75.452632 75.452632 0 0 0-75.290947-75.317895z" fill="#FFFFFF" p-id="8522"></path><path d="M509.978947 793.249684h-6.144c-153.411368-59.311158-227.031579-128.835368-227.031579-210.647579v-280.225684a15.386947 15.386947 0 0 1 10.213053-14.309053c100.271158-38.858105 173.864421-57.263158 224.983579-57.263157s122.718316 18.405053 224.983579 57.263157a15.386947 15.386947 0 0 1 10.24 14.309053v280.252632c0 81.812211-75.668211 151.363368-229.052632 208.626526a15.467789 15.467789 0 0 1-8.192 1.994105z m-204.530526-480.633263v269.985684c0 67.368421 69.551158 126.814316 204.530526 179.981474 134.979368-53.167158 204.530526-114.526316 204.530527-179.981474v-269.985684a643.637895 643.637895 0 0 0-204.530527-51.2 631.565474 631.565474 0 0 0-204.530526 51.2z" fill="#FFFFFF" p-id="8523"></path></svg>